<?xml version="1.0" encoding="iso-8859-1"?>
<!-- Uploaded to: SVG Repo, www.svgrepo.com, Generator: SVG Repo Mixer Tools -->
<svg fill="#000000" height="800px" width="800px" version="1.1" id="Layer_1" xmlns="http://www.w3.org/2000/svg" xmlns:xlink="http://www.w3.org/1999/xlink" 
	 viewBox="0 0 512 512" xml:space="preserve">
<g>
	<g>
		<path d="M458.272,86.857H37.728C17.554,86.857,0,102.938,0,123.116v246.83c0,20.17,17.545,36.911,37.71,36.911h320.005
			c5.049,0,9.143-4.089,9.143-9.143c0-5.054-4.094-9.143-9.143-9.143H37.71c-10.08,0-19.424-8.536-19.424-18.625v-246.83
			c0-10.089,9.353-17.973,19.442-17.973h420.544c10.089,0,17.156,7.884,17.156,17.973V263c0,5.053,4.094,9.143,9.143,9.143
			c5.049,0,9.143-4.089,9.143-9.143V123.116C493.714,102.938,478.446,86.857,458.272,86.857z"/>
	</g>
</g>
<g>
	<g>
		<path d="M504,324.571h-37.714V287.67c0-5.054-2.951-8.813-8-8.813h-36.571c-5.049,0-10.286,3.759-10.286,8.813v36.902H376
			c-5.049,0-10.286,3.759-10.286,8.813v36.571c0,5.053,5.237,9.473,10.286,9.473h35.429v36.241c0,5.053,5.237,9.473,10.286,9.473
			h36.571c5.049,0,8-4.42,8-9.473v-36.241H504c5.049,0,8-4.42,8-9.473v-36.571C512,328.33,509.049,324.571,504,324.571z
			 M493.714,361.143h-35.429c-5.049,0-10.286,3.759-10.286,8.813v36.902h-18.286v-36.902c0-5.054-2.951-8.813-8-8.813H384v-18.286
			h37.714c5.049,0,8-4.42,8-9.473v-36.241H448v36.241c0,5.054,5.237,9.473,10.286,9.473h35.429V361.143z"/>
	</g>
</g>
<g>
	<g>
		<path d="M363.513,143c-2.478-1.696-5.911-2.071-8.723-0.991c-0.112,0.053-11.893,4.455-26.991,2.143
			c-2.946-0.438-7.17-2.563-11.192-4.616c-6.696-3.42-14.317-7.295-22.719-7.295c-19.143,0-29.792,3.125-34.484,10.143
			c-1.785,2.665-2.92,5.455-2.797,7.868c-0.003,0.094-0.607,0.181-0.607,0.275v131.632c-9.143-7.902-24.614-12.774-40.571-12.774
			c-32.768,0-59.143,20.509-59.143,45.714c0,25.205,26.232,45.714,59,45.714s59-20.509,59-45.714V210.636
			c4.571-2.208,11.616-5.259,18.656-5.27c1.393,0.232,5.692,2.357,8.621,3.902c6.384,3.375,14.473,7.58,22.871,8.884
			c3.201,0.5,6.438,0.705,9.491,0.705c14.625,0,27.192-4.741,27.799-4.991c3.469-1.384,6.277-4.75,6.277-8.482v-54.857
			C368,147.518,365.995,144.705,363.513,143z M216,342.527c-22.304,0-41.143-12.563-41.143-27.429
			c0-14.866,18.839-27.429,41.143-27.429s41.143,12.563,41.143,27.429C257.143,329.964,238.304,342.527,216,342.527z
			 M349.714,198.643c-6.857,1.313-13.804,2.687-21.826,1.438c-5.37-0.83-11.799-4.098-17.246-6.982c-6.344-3.348-10.982-6-16.161-6
			c-6.683,0-13.339,1.563-17.911,3.5v-38.116h0c2.286-0.786,6.924-1.955,17.786-1.955c4.005,0,9.027,2.688,14.125,5.295
			c5.326,2.714,11.205,5.527,17.103,6.42c9.237,1.393,17.272,0.893,24.129-0.098V198.643z"/>
	</g>
</g>
</svg>